<?xml version="1.0" encoding="utf-8"?>
<!-- Generator: Adobe Illustrator 24.0.1, SVG Export Plug-In . SVG Version: 6.00 Build 0)  -->
<svg version="1.1" id="Layer_1" xmlns="http://www.w3.org/2000/svg" xmlns:xlink="http://www.w3.org/1999/xlink" x="0px" y="0px"
	 viewBox="0 0 100 100" style="enable-background:new 0 0 100 100;" xml:space="preserve">
<style type="text/css">
	.st0{fill:#FFFFFF;}
</style>
<g>
	<path class="st0" d="M69.5,15.9v-5.6c0-3,4.5-3,4.5,0v5.6C74,18.8,69.5,18.8,69.5,15.9z"/>
	<path class="st0" d="M26,15.9v-5.6c0-3,4.5-3,4.5,0v5.6C30.5,18.8,26,18.8,26,15.9z"/>
	<path class="st0" d="M92,27.1c0-2.3,0-3.7,0-8.4c0-3.3-2.7-6-6-6h-7.5v3.1c0,3.7-3,6.8-6.8,6.8s-6.8-3-6.8-6.8v-3.1H35v3.1
		c0,3.7-3,6.8-6.8,6.8s-6.8-3-6.8-6.8v-3.1c-2.7,0-4.8,0-7.5,0c-3.3,0-6,2.7-6,6c0,4.2,0,5.9,0,8.4H92z"/>
	<path class="st0" d="M8,31.6c0,8.8,0,7.8,0,54.4c0,3.3,2.7,6,6,6h72c3.3,0,6-2.7,6-6c0-36.8,0-48.2,0-54.4H8z M35.1,79.4
		c0,1.2-1,2.2-2.2,2.2h-12c-1.2,0-2.2-1-2.2-2.2v-12c0-1.2,1-2.2,2.2-2.2h12c1.2,0,2.2,1,2.2,2.2V79.4z M35.1,56.3
		c0,1.2-1,2.2-2.2,2.2h-12c-1.2,0-2.2-1-2.2-2.2v-12c0-1.2,1-2.3,2.3-2.3h12c1.2,0,2.2,1,2.2,2.2V56.3z M58.3,79.4
		c0,1.2-1,2.2-2.2,2.2H44c-1.2,0-2.2-1-2.2-2.2v-12c0-1.2,1-2.2,2.2-2.2h12c1.2,0,2.2,1,2.2,2.2V79.4z M58.3,56.3
		c0,1.2-1,2.2-2.2,2.2H44c-1.2,0-2.2-1-2.2-2.2v-12c0-1.2,1-2.2,2.2-2.2h12c1.2,0,2.2,1,2.2,2.2V56.3z M81.4,56.3
		c0,1.2-1,2.2-2.2,2.2h-12c-1.2,0-2.2-1-2.2-2.2v-12c0-1.2,1-2.2,2.2-2.2h12c1.2,0,2.2,1,2.2,2.2V56.3z"/>
</g>
</svg>
