<?xml version="1.0" encoding="utf-8"?>
<!-- Generator: Adobe Illustrator 24.0.1, SVG Export Plug-In . SVG Version: 6.00 Build 0)  -->
<svg version="1.1" id="Layer_1" xmlns="http://www.w3.org/2000/svg" xmlns:xlink="http://www.w3.org/1999/xlink" x="0px" y="0px"
	 viewBox="0 0 100 100" style="enable-background:new 0 0 100 100;" xml:space="preserve">
<style type="text/css">
	.st0{fill:#FFFFFF;}
</style>
<title>A</title>
<g>
	<path class="st0" d="M58.5,64.7C80.4,52.1,99.6,34.2,94,24.6c-2.7-4.6-9.8-5.3-19-3.3c1.5,1.3,2.9,2.8,4.2,4.4
		c5.7-0.9,9.4-0.3,10.4,1.4c1.2,2.1-1.2,7-7,13.2c-0.9-3.1-2.3-6.1-4.1-8.8c-3.7,3.4-7.6,6.6-11.7,9.6c-0.7,0.5-1.6,0.3-2.1-0.3
		c-0.5-0.7-0.3-1.6,0.3-2.1c4.1-2.9,8-6.2,11.7-9.6c-2-2.5-4.3-4.7-6.9-6.6c-5.3,6.6-14.7,13.8-24.6,19.5c-0.6,0.4-1.3,0.7-1.9,1.1
		c-0.7,0.4-1.6,0.1-2-0.6c-0.4-0.7-0.1-1.6,0.6-2c0.6-0.3,1.3-0.7,1.9-1.1C54.8,33,63,26.2,67.5,20.7c-3.1-1.8-6.4-3.2-9.8-4
		c-0.3,0.5-0.7,1-1.1,1.5c-0.5,0.7-1.4,0.8-2.1,0.3c-0.7-0.5-0.8-1.4-0.3-2.1c0.1-0.1,0.1-0.2,0.2-0.3c-15.2-2-29.9,6.5-35.8,20.7
		c5-0.5,11.5-2.5,18.4-6.3c0.7-0.4,1.6-0.1,2,0.6c0.4,0.7,0.1,1.6-0.6,2c-7.7,4.2-15.2,6.5-21,6.7c-1,3.3-1.5,6.7-1.5,10.1
		c0,0.2,0,0.3,0,0.5c1.8-0.3,3.5-0.7,5.3-1.2c0.8-0.2,1.6,0.3,1.8,1.1c0.2,0.8-0.2,1.6-1,1.8c-1.9,0.6-3.9,1-5.9,1.3
		c0.3,3.2,1.1,6.3,2.3,9.3c7.1-2,16.4-5.9,27.5-12c0.7-0.4,1.6-0.1,2,0.6c0.4,0.7,0.1,1.6-0.6,2c-9.5,5.2-19.5,9.7-27.7,12.1
		c1.5,2.9,3.4,5.6,5.6,7.9c-8.2,2-13.7,1.6-14.9-0.5c-1-1.7,0.4-5.2,4-9.7c-0.7-1.9-1.3-3.9-1.6-5.9C6.3,64.3,3.3,70.8,6,75.4
		C11.6,85.1,36.6,77.3,58.5,64.7z M45.8,23c1.4-0.8,3.3-0.3,4.1,1.1c0.8,1.4,0.3,3.3-1.1,4.1c-1.4,0.8-3.3,0.3-4.1-1.1
		C43.9,25.6,44.3,23.8,45.8,23C45.8,23,45.8,23,45.8,23z M33.9,49.4c-1.4,0.8-3.3,0.3-4.1-1.1c-0.8-1.4-0.3-3.3,1.1-4.1
		c1.4-0.8,3.3-0.3,4.1,1.1C35.8,46.7,35.3,48.6,33.9,49.4C33.9,49.4,33.9,49.4,33.9,49.4z M55,43.7c1.4-0.8,3.3-0.3,4.1,1.1
		c0.8,1.4,0.3,3.3-1.1,4.1s-3.3,0.3-4.1-1.1c0,0,0,0,0,0C53.1,46.3,53.6,44.5,55,43.7L55,43.7z"/>
	<path class="st0" d="M84,51.5c-7.3,6.3-15.2,11.9-23.6,16.7c-8.3,4.9-17.1,8.9-26.2,12c16.7,8.7,37.3,2.2,46-14.5
		C82.5,61.3,83.8,56.5,84,51.5L84,51.5z M62.5,76.9c-1.2,0.7-2.7,0.3-3.4-0.9c-0.7-1.2-0.3-2.7,0.9-3.4c1.2-0.7,2.7-0.3,3.4,0.9
		c0,0,0,0,0,0C64.1,74.7,63.7,76.2,62.5,76.9z"/>
</g>
</svg>
