<?xml version="1.0" encoding="utf-8"?>
<!-- Generator: Adobe Illustrator 25.1.0, SVG Export Plug-In . SVG Version: 6.00 Build 0)  -->
<svg version="1.1" id="Layer_1" xmlns="http://www.w3.org/2000/svg" xmlns:xlink="http://www.w3.org/1999/xlink" x="0px" y="0px"
	 viewBox="0 0 700 700" style="enable-background:new 0 0 700 700;" xml:space="preserve">
<style type="text/css">
	.st0{fill:#FFFFFF;}
</style>
<g>
	<path class="st0" d="M256.3,422.8c-0.9-3-3.7-4.9-6.6-4.9l-34.5,0c-60.9,0-110.2,49.4-110.2,110.2v49c0,9.1,7.4,16.4,16.4,16.4h181
		c4.7,0,8.2-4.7,6.6-9.3L256.3,422.8z M484.7,417.9h-34.3c-3,0-5.8,1.9-6.6,4.9L391,584.3c-1.4,4.6,1.9,9.3,6.6,9.3h180.9
		c9.1,0,16.4-7.4,16.4-16.4v-49C594.9,467.2,545.6,417.9,484.7,417.9L484.7,417.9z M485.2,241.7c0-74.7-60.6-135.3-135.3-135.3
		c-74.7,0-135.3,60.6-135.3,135.3c0,74.7,60.6,135.3,135.3,135.3C424.6,376.9,485.2,316.4,485.2,241.7L485.2,241.7z"/>
	<path class="st0" d="M349.9,421.7c-11.7,0-21.2,9.4-21.2,21.2v112.7c0,11.7,9.4,21.2,21.2,21.2s21.2-9.4,21.2-21.2V442.9
		C371.1,431.2,361.6,421.7,349.9,421.7L349.9,421.7z"/>
</g>
</svg>
